<svg width="279" height="26" viewBox="0 0 279 26" fill="none" xmlns="http://www.w3.org/2000/svg">
<path d="M15.2915 4.03888L0 21.9611H7.64573L15.2915 13.0822L23.0194 21.9611H30.5829L15.2915 4.03888Z" fill="#2589FF"/>
<path d="M17.3468 4.03888L32.556 21.9611H40.0373L24.8281 4.03888H17.3468Z" fill="#0075FF"/>
<path d="M26.719 4.03888H30.5829L45.3811 21.9611H42.0926L26.719 4.03888Z" fill="#0069E6"/>
<path d="M50.9211 21.5V6.6H60.6211V8.7H53.2811V13.18H59.8211V15.28H53.2811V21.5H50.9211ZM67.3078 21.74C66.2678 21.74 65.3145 21.4933 64.4478 21C63.5945 20.5067 62.9145 19.8333 62.4078 18.98C61.9012 18.1267 61.6478 17.16 61.6478 16.08C61.6478 14.9867 61.9012 14.02 62.4078 13.18C62.9145 12.3267 63.5945 11.66 64.4478 11.18C65.3012 10.6867 66.2545 10.44 67.3078 10.44C68.3745 10.44 69.3278 10.6867 70.1678 11.18C71.0212 11.66 71.6945 12.3267 72.1878 13.18C72.6945 14.02 72.9478 14.9867 72.9478 16.08C72.9478 17.1733 72.6945 18.1467 72.1878 19C71.6812 19.8533 71.0012 20.5267 70.1478 21.02C69.2945 21.5 68.3478 21.74 67.3078 21.74ZM67.3078 19.64C67.9478 19.64 68.5145 19.4867 69.0078 19.18C69.5012 18.8733 69.8878 18.4533 70.1678 17.92C70.4612 17.3733 70.6078 16.76 70.6078 16.08C70.6078 15.4 70.4612 14.7933 70.1678 14.26C69.8878 13.7267 69.5012 13.3067 69.0078 13C68.5145 12.6933 67.9478 12.54 67.3078 12.54C66.6812 12.54 66.1145 12.6933 65.6078 13C65.1145 13.3067 64.7212 13.7267 64.4278 14.26C64.1478 14.7933 64.0078 15.4 64.0078 16.08C64.0078 16.76 64.1478 17.3733 64.4278 17.92C64.7212 18.4533 65.1145 18.8733 65.6078 19.18C66.1145 19.4867 66.6812 19.64 67.3078 19.64ZM73.6836 21.5L77.4636 16.08L73.6836 10.68H76.3436L79.4436 15.2H78.1636L81.2636 10.68H83.9236L80.1236 16.08L83.9036 21.5H81.2436L78.1836 16.96H79.4236L76.3436 21.5H73.6836ZM93.1428 21.5L87.8628 6.6H90.4028L94.7228 19.32H94.2228L98.5228 6.6H101.063L95.7828 21.5H93.1428ZM105.035 21.74C104.302 21.74 103.655 21.6133 103.095 21.36C102.548 21.0933 102.122 20.7333 101.815 20.28C101.508 19.8133 101.355 19.2667 101.355 18.64C101.355 18.0533 101.482 17.5267 101.735 17.06C102.002 16.5933 102.408 16.2 102.955 15.88C103.502 15.56 104.188 15.3333 105.015 15.2L108.775 14.58V16.36L105.455 16.94C104.855 17.0467 104.415 17.24 104.135 17.52C103.855 17.7867 103.715 18.1333 103.715 18.56C103.715 18.9733 103.868 19.3133 104.175 19.58C104.495 19.8333 104.902 19.96 105.395 19.96C106.008 19.96 106.542 19.8267 106.995 19.56C107.462 19.2933 107.822 18.94 108.075 18.5C108.328 18.0467 108.455 17.5467 108.455 17V14.22C108.455 13.6867 108.255 13.2533 107.855 12.92C107.468 12.5733 106.948 12.4 106.295 12.4C105.695 12.4 105.168 12.56 104.715 12.88C104.275 13.1867 103.948 13.5867 103.735 14.08L101.855 13.14C102.055 12.6067 102.382 12.14 102.835 11.74C103.288 11.3267 103.815 11.0067 104.415 10.78C105.028 10.5533 105.675 10.44 106.355 10.44C107.208 10.44 107.962 10.6 108.615 10.92C109.282 11.24 109.795 11.6867 110.155 12.26C110.528 12.82 110.715 13.4733 110.715 14.22V21.5H108.555V19.54L109.015 19.6C108.762 20.04 108.435 20.42 108.035 20.74C107.648 21.06 107.202 21.3067 106.695 21.48C106.202 21.6533 105.648 21.74 105.035 21.74ZM113.357 21.5V6.36H115.617V21.5H113.357ZM118.26 21.5V6.36H120.52V21.5H118.26ZM128.242 21.74C127.162 21.74 126.202 21.4933 125.362 21C124.535 20.4933 123.889 19.8133 123.422 18.96C122.955 18.0933 122.722 17.1267 122.722 16.06C122.722 14.9667 122.955 14 123.422 13.16C123.902 12.32 124.542 11.66 125.342 11.18C126.142 10.6867 127.049 10.44 128.062 10.44C128.875 10.44 129.602 10.58 130.242 10.86C130.882 11.14 131.422 11.5267 131.862 12.02C132.302 12.5 132.635 13.0533 132.862 13.68C133.102 14.3067 133.222 14.9733 133.222 15.68C133.222 15.8533 133.215 16.0333 133.202 16.22C133.189 16.4067 133.162 16.58 133.122 16.74H124.502V14.94H131.842L130.762 15.76C130.895 15.1067 130.849 14.5267 130.622 14.02C130.409 13.5 130.075 13.0933 129.622 12.8C129.182 12.4933 128.662 12.34 128.062 12.34C127.462 12.34 126.929 12.4933 126.462 12.8C125.995 13.0933 125.635 13.52 125.382 14.08C125.129 14.6267 125.029 15.2933 125.082 16.08C125.015 16.8133 125.115 17.4533 125.382 18C125.662 18.5467 126.049 18.9733 126.542 19.28C127.049 19.5867 127.622 19.74 128.262 19.74C128.915 19.74 129.469 19.5933 129.922 19.3C130.389 19.0067 130.755 18.6267 131.022 18.16L132.862 19.06C132.649 19.5667 132.315 20.0267 131.862 20.44C131.422 20.84 130.889 21.16 130.262 21.4C129.649 21.6267 128.975 21.74 128.242 21.74ZM136.388 25.92C136.121 25.92 135.854 25.8933 135.588 25.84C135.334 25.8 135.101 25.7333 134.888 25.64V23.7C135.048 23.74 135.241 23.7733 135.468 23.8C135.694 23.84 135.914 23.86 136.128 23.86C136.754 23.86 137.214 23.72 137.508 23.44C137.814 23.1733 138.088 22.7533 138.328 22.18L139.048 20.54L139.008 22.44L134.328 10.68H136.748L140.208 19.7H139.388L142.828 10.68H145.268L140.488 22.68C140.234 23.32 139.914 23.88 139.528 24.36C139.154 24.8533 138.708 25.2333 138.188 25.5C137.681 25.78 137.081 25.92 136.388 25.92Z" fill="#001733"/>
<path d="M150.53 21.5V6.6H152.89V13.16H159.79V6.6H162.13V21.5H159.79V15.26H152.89V21.5H150.53ZM170.218 21.74C169.178 21.74 168.225 21.4933 167.358 21C166.505 20.5067 165.825 19.8333 165.318 18.98C164.811 18.1267 164.558 17.16 164.558 16.08C164.558 14.9867 164.811 14.02 165.318 13.18C165.825 12.3267 166.505 11.66 167.358 11.18C168.211 10.6867 169.165 10.44 170.218 10.44C171.285 10.44 172.238 10.6867 173.078 11.18C173.931 11.66 174.605 12.3267 175.098 13.18C175.605 14.02 175.858 14.9867 175.858 16.08C175.858 17.1733 175.605 18.1467 175.098 19C174.591 19.8533 173.911 20.5267 173.058 21.02C172.205 21.5 171.258 21.74 170.218 21.74ZM170.218 19.64C170.858 19.64 171.425 19.4867 171.918 19.18C172.411 18.8733 172.798 18.4533 173.078 17.92C173.371 17.3733 173.518 16.76 173.518 16.08C173.518 15.4 173.371 14.7933 173.078 14.26C172.798 13.7267 172.411 13.3067 171.918 13C171.425 12.6933 170.858 12.54 170.218 12.54C169.591 12.54 169.025 12.6933 168.518 13C168.025 13.3067 167.631 13.7267 167.338 14.26C167.058 14.7933 166.918 15.4 166.918 16.08C166.918 16.76 167.058 17.3733 167.338 17.92C167.631 18.4533 168.025 18.8733 168.518 19.18C169.025 19.4867 169.591 19.64 170.218 19.64ZM178.064 21.5V10.68H180.224V13.02L179.944 12.66C180.171 11.9267 180.584 11.3733 181.184 11C181.784 10.6267 182.471 10.44 183.244 10.44C184.111 10.44 184.878 10.6733 185.544 11.14C186.224 11.5933 186.678 12.2 186.904 12.96L186.264 13.02C186.584 12.1533 187.071 11.5067 187.724 11.08C188.391 10.6533 189.151 10.44 190.004 10.44C190.751 10.44 191.424 10.6133 192.024 10.96C192.638 11.3067 193.124 11.7867 193.484 12.4C193.844 13.0133 194.024 13.7133 194.024 14.5V21.5H191.764V15.12C191.764 14.5733 191.664 14.1133 191.464 13.74C191.278 13.3533 191.011 13.06 190.664 12.86C190.331 12.6467 189.938 12.54 189.484 12.54C189.031 12.54 188.631 12.6467 188.284 12.86C187.938 13.06 187.664 13.3533 187.464 13.74C187.264 14.1267 187.164 14.5867 187.164 15.12V21.5H184.924V15.12C184.924 14.5733 184.824 14.1133 184.624 13.74C184.438 13.3533 184.171 13.06 183.824 12.86C183.491 12.6467 183.091 12.54 182.624 12.54C182.171 12.54 181.771 12.6467 181.424 12.86C181.078 13.06 180.804 13.3533 180.604 13.74C180.418 14.1267 180.324 14.5867 180.324 15.12V21.5H178.064ZM201.523 21.74C200.443 21.74 199.483 21.4933 198.643 21C197.817 20.4933 197.17 19.8133 196.703 18.96C196.237 18.0933 196.003 17.1267 196.003 16.06C196.003 14.9667 196.237 14 196.703 13.16C197.183 12.32 197.823 11.66 198.623 11.18C199.423 10.6867 200.33 10.44 201.343 10.44C202.157 10.44 202.883 10.58 203.523 10.86C204.163 11.14 204.703 11.5267 205.143 12.02C205.583 12.5 205.917 13.0533 206.143 13.68C206.383 14.3067 206.503 14.9733 206.503 15.68C206.503 15.8533 206.497 16.0333 206.483 16.22C206.47 16.4067 206.443 16.58 206.403 16.74H197.783V14.94H205.123L204.043 15.76C204.177 15.1067 204.13 14.5267 203.903 14.02C203.69 13.5 203.357 13.0933 202.903 12.8C202.463 12.4933 201.943 12.34 201.343 12.34C200.743 12.34 200.21 12.4933 199.743 12.8C199.277 13.0933 198.917 13.52 198.663 14.08C198.41 14.6267 198.31 15.2933 198.363 16.08C198.297 16.8133 198.397 17.4533 198.663 18C198.943 18.5467 199.33 18.9733 199.823 19.28C200.33 19.5867 200.903 19.74 201.543 19.74C202.197 19.74 202.75 19.5933 203.203 19.3C203.67 19.0067 204.037 18.6267 204.303 18.16L206.143 19.06C205.93 19.5667 205.597 20.0267 205.143 20.44C204.703 20.84 204.17 21.16 203.543 21.4C202.93 21.6267 202.257 21.74 201.523 21.74ZM212.425 21.5V6.6H218.705C219.638 6.6 220.445 6.76667 221.125 7.1C221.805 7.42 222.325 7.88667 222.685 8.5C223.045 9.1 223.225 9.81333 223.225 10.64C223.225 11.36 223.038 12.02 222.665 12.62C222.305 13.2067 221.738 13.6733 220.965 14.02V13.02C221.645 13.2867 222.198 13.6267 222.625 14.04C223.052 14.44 223.358 14.8933 223.545 15.4C223.745 15.9067 223.845 16.44 223.845 17C223.845 18.4 223.385 19.5 222.465 20.3C221.558 21.1 220.312 21.5 218.725 21.5H212.425ZM214.785 19.4H218.905C219.692 19.4 220.318 19.1867 220.785 18.76C221.252 18.32 221.485 17.74 221.485 17.02C221.485 16.2867 221.252 15.7067 220.785 15.28C220.318 14.84 219.692 14.62 218.905 14.62H214.785V19.4ZM214.785 12.54H218.765C219.405 12.54 219.918 12.36 220.305 12C220.692 11.6267 220.885 11.14 220.885 10.54C220.885 9.94 220.692 9.47333 220.305 9.14C219.918 8.80667 219.405 8.64 218.765 8.64H214.785V12.54ZM229.913 21.74C229.099 21.74 228.386 21.56 227.773 21.2C227.159 20.8267 226.679 20.3133 226.333 19.66C225.999 18.9933 225.833 18.2267 225.833 17.36V10.68H228.093V17.16C228.093 17.6533 228.193 18.0867 228.393 18.46C228.593 18.8333 228.873 19.1267 229.233 19.34C229.593 19.54 230.006 19.64 230.473 19.64C230.953 19.64 231.373 19.5333 231.733 19.32C232.093 19.1067 232.373 18.8067 232.573 18.42C232.786 18.0333 232.893 17.58 232.893 17.06V10.68H235.133V21.5H232.993V19.38L233.233 19.66C232.979 20.3267 232.559 20.84 231.973 21.2C231.386 21.56 230.699 21.74 229.913 21.74ZM238.731 25.92C238.465 25.92 238.198 25.8933 237.931 25.84C237.678 25.8 237.445 25.7333 237.231 25.64V23.7C237.391 23.74 237.585 23.7733 237.811 23.8C238.038 23.84 238.258 23.86 238.471 23.86C239.098 23.86 239.558 23.72 239.851 23.44C240.158 23.1733 240.431 22.7533 240.671 22.18L241.391 20.54L241.351 22.44L236.671 10.68H239.091L242.551 19.7H241.731L245.171 10.68H247.611L242.831 22.68C242.578 23.32 242.258 23.88 241.871 24.36C241.498 24.8533 241.051 25.2333 240.531 25.5C240.025 25.78 239.425 25.92 238.731 25.92ZM254.043 21.74C252.963 21.74 252.003 21.4933 251.163 21C250.336 20.4933 249.689 19.8133 249.223 18.96C248.756 18.0933 248.523 17.1267 248.523 16.06C248.523 14.9667 248.756 14 249.223 13.16C249.703 12.32 250.343 11.66 251.143 11.18C251.943 10.6867 252.849 10.44 253.863 10.44C254.676 10.44 255.403 10.58 256.043 10.86C256.683 11.14 257.223 11.5267 257.663 12.02C258.103 12.5 258.436 13.0533 258.663 13.68C258.903 14.3067 259.023 14.9733 259.023 15.68C259.023 15.8533 259.016 16.0333 259.003 16.22C258.989 16.4067 258.963 16.58 258.923 16.74H250.303V14.94H257.643L256.563 15.76C256.696 15.1067 256.649 14.5267 256.423 14.02C256.209 13.5 255.876 13.0933 255.423 12.8C254.983 12.4933 254.463 12.34 253.863 12.34C253.263 12.34 252.729 12.4933 252.263 12.8C251.796 13.0933 251.436 13.52 251.183 14.08C250.929 14.6267 250.829 15.2933 250.883 16.08C250.816 16.8133 250.916 17.4533 251.183 18C251.463 18.5467 251.849 18.9733 252.343 19.28C252.849 19.5867 253.423 19.74 254.063 19.74C254.716 19.74 255.269 19.5933 255.723 19.3C256.189 19.0067 256.556 18.6267 256.823 18.16L258.663 19.06C258.449 19.5667 258.116 20.0267 257.663 20.44C257.223 20.84 256.689 21.16 256.063 21.4C255.449 21.6267 254.776 21.74 254.043 21.74ZM261.228 21.5V10.68H263.388V12.86L263.188 12.54C263.428 11.8333 263.815 11.3267 264.348 11.02C264.882 10.7 265.522 10.54 266.268 10.54H266.928V12.6H265.988C265.242 12.6 264.635 12.8333 264.168 13.3C263.715 13.7533 263.488 14.4067 263.488 15.26V21.5H261.228ZM272.475 21.74C271.368 21.74 270.395 21.4667 269.555 20.92C268.728 20.3733 268.148 19.64 267.815 18.72L269.555 17.9C269.848 18.5133 270.248 19 270.755 19.36C271.275 19.72 271.848 19.9 272.475 19.9C273.008 19.9 273.441 19.78 273.775 19.54C274.108 19.3 274.275 18.9733 274.275 18.56C274.275 18.2933 274.201 18.08 274.055 17.92C273.908 17.7467 273.721 17.6067 273.495 17.5C273.281 17.3933 273.061 17.3133 272.835 17.26L271.135 16.78C270.201 16.5133 269.501 16.1133 269.035 15.58C268.581 15.0333 268.355 14.4 268.355 13.68C268.355 13.0267 268.521 12.46 268.855 11.98C269.188 11.4867 269.648 11.1067 270.235 10.84C270.821 10.5733 271.481 10.44 272.215 10.44C273.201 10.44 274.081 10.6867 274.855 11.18C275.628 11.66 276.175 12.3333 276.495 13.2L274.755 14.02C274.541 13.5 274.201 13.0867 273.735 12.78C273.281 12.4733 272.768 12.32 272.195 12.32C271.701 12.32 271.308 12.44 271.015 12.68C270.721 12.9067 270.575 13.2067 270.575 13.58C270.575 13.8333 270.641 14.0467 270.775 14.22C270.908 14.38 271.081 14.5133 271.295 14.62C271.508 14.7133 271.728 14.7933 271.955 14.86L273.715 15.38C274.608 15.6333 275.295 16.0333 275.775 16.58C276.255 17.1133 276.495 17.7533 276.495 18.5C276.495 19.14 276.321 19.7067 275.975 20.2C275.641 20.68 275.175 21.06 274.575 21.34C273.975 21.6067 273.275 21.74 272.475 21.74Z" fill="#2589FF"/>
</svg>
